STARTFONT 2.1
FONT -FontForge-Checkbook-Book-R-Normal--50-480-75-75-P-230-ISO10646-1
SIZE 48 75 75
FONTBOUNDINGBOX 34 50 0 -8
COMMENT "Generated by fontforge, http://fontforge.sourceforge.net"
COMMENT "Allen R. Walden's Friendly Fonts (Unprotected. Please distribute freely.)"
STARTPROPERTIES 39
FOUNDRY "FontForge"
FAMILY_NAME "Checkbook"
WEIGHT_NAME "Book"
SLANT "R"
SETWIDTH_NAME "Normal"
ADD_STYLE_NAME ""
PIXEL_SIZE 50
POINT_SIZE 480
RESOLUTION_X 75
RESOLUTION_Y 75
SPACING "P"
AVERAGE_WIDTH 230
CHARSET_REGISTRY "ISO10646"
CHARSET_ENCODING "1"
FONTNAME_REGISTRY ""
CHARSET_COLLECTIONS "ISO10646-1"
FONT_NAME "Checkbook"
FACE_NAME "Checkbook"
COPYRIGHT "Allen R. Walden's Friendly Fonts (Unprotected. Please distribute freely.)"
FONT_VERSION "04-18-93"
FONT_ASCENT 40
FONT_DESCENT 10
UNDERLINE_POSITION -2
UNDERLINE_THICKNESS 1
X_HEIGHT 24
CAP_HEIGHT 41
RAW_ASCENT 799
RAW_DESCENT 200
NORM_SPACE 16
RELATIVE_WEIGHT 40
RELATIVE_SETWIDTH 50
SUPERSCRIPT_X 0
SUPERSCRIPT_Y 20
SUPERSCRIPT_SIZE 8
SUBSCRIPT_X 0
SUBSCRIPT_Y 0
SUBSCRIPT_SIZE 8
AVG_LOWERCASE_WIDTH 186
AVG_UPPERCASE_WIDTH 280
ENDPROPERTIES
CHARS 88
STARTCHAR space
ENCODING 32
SWIDTH 323 0
DWIDTH 16 0
BBX 1 1 0 0
BITMAP
00
ENDCHAR
STARTCHAR exclam
ENCODING 33
SWIDTH 269 0
DWIDTH 13 0
BBX 11 42 1 0
BITMAP
0600
3F80
7FC0
7FE0
FFE0
FFE0
FFE0
FFE0
FFE0
7FE0
7FE0
7FE0
7FC0
7FC0
7FC0
3FC0
3FC0
3FC0
3F80
3F80
3F80
1F80
1F80
1F00
1F00
1F00
1F00
0F00
0F00
0E00
0600
0000
0000
7FC0
7FC0
7FC0
7FC0
7FC0
7FC0
7FC0
7FC0
7FC0
ENDCHAR
STARTCHAR dollar
ENCODING 36
SWIDTH 490 0
DWIDTH 25 0
BBX 21 46 2 -4
BITMAP
030800
031C00
031C00
079C00
7FFFF0
FFFFF8
FFFFF8
FFFFF0
FF9C00
FB9C00
F39C00
F39C00
F39C00
F39C00
F39C00
F39C00
F39C00
F39C00
F39C00
FB9C00
FFBE00
FFFFF0
FFFFF8
FFFFF8
FFFFF8
079DF8
039CF8
039CF8
039CF8
039CF8
039CF8
039CF8
039CF8
039CF8
039CF8
039CF8
039CF8
039DF8
7FFFF8
FFFFF8
FFFFF8
FFFFF0
039C00
031C00
031C00
030C00
ENDCHAR
STARTCHAR percent
ENCODING 37
SWIDTH 615 0
DWIDTH 31 0
BBX 27 41 2 0
BITMAP
FFE00180
FFE003C0
C0E00380
C0600780
C0600700
C0600F00
C0600E00
C1E01C00
C1E03C00
C3E03800
C3E07800
C3E07000
C3E0F000
C3E0E000
C3E1C000
FFE3C000
FFE38000
00078000
00070000
000F0000
000E0000
001C0000
001C0000
00380000
0078FFE0
0070FFE0
00F0C0E0
00E0C060
01C0C060
01C0C060
0380C060
0780C1E0
0700C1E0
0F00C3E0
0E00C3E0
1E00C3E0
1C00C3E0
3800C3E0
3800C3E0
7000FFE0
2000FFE0
ENDCHAR
STARTCHAR ampersand
ENCODING 38
SWIDTH 635 0
DWIDTH 32 0
BBX 28 44 2 -3
BITMAP
07FFFFE0
0FFFFFF0
0FFFFFF0
0FFFFFF0
0F8003F0
0F8001F0
0F0000F0
0F0000F0
0F0000F0
0F0000F0
0F0000F0
0F0000F0
0F0000F0
0F0000F0
0F8000F0
0F8001F0
0FC001F0
0FE003F0
0FFFFFF0
0FFFFFF0
1FFFFFE0
FFFE0000
FFBE0000
FF1E0000
FF0F0000
FF0F8000
FF078000
FF03C000
FF03E000
FF01E000
FF00F000
FF0078E0
FF0078E0
FF003DE0
FF001FE0
FF001FE0
FF000FE0
FF0007E0
FF8007E0
FFFFFFE0
FFFFFFE0
000001F0
000000F0
00000070
ENDCHAR
STARTCHAR quotesingle
ENCODING 39
SWIDTH 195 0
DWIDTH 10 0
BBX 8 14 1 28
BITMAP
7C
FF
FF
FF
FF
FF
7F
3F
1F
1F
1E
3E
7C
70
ENDCHAR
STARTCHAR parenleft
ENCODING 40
SWIDTH 331 0
DWIDTH 17 0
BBX 13 44 2 -3
BITMAP
0038
0070
00E0
01E0
03C0
07C0
0F80
0F80
1F00
3F00
3F00
3E00
7E00
7E00
7E00
FC00
FC00
FC00
FC00
FC00
FC00
FC00
FC00
FC00
FC00
FC00
FC00
FC00
FC00
7C00
7E00
7E00
3E00
3E00
3F00
1F00
0F00
0F80
0780
03C0
01C0
00E0
0070
0018
ENDCHAR
STARTCHAR parenright
ENCODING 41
SWIDTH 322 0
DWIDTH 16 0
BBX 13 44 2 -3
BITMAP
E000
F000
7800
3C00
3E00
1F00
1F00
0F80
0FC0
07C0
07E0
07E0
07E0
03F0
03F0
03F0
03F0
03F8
03F8
01F8
01F8
01F8
01F8
01F8
01F8
03F8
03F8
03F0
03F0
03F0
03F0
03E0
07E0
07E0
07C0
07C0
0F80
0F00
1F00
1E00
3C00
3800
6000
C000
ENDCHAR
STARTCHAR asterisk
ENCODING 42
SWIDTH 327 0
DWIDTH 16 0
BBX 13 13 2 29
BITMAP
0300
0780
0780
4780
FFF8
FFF8
FFF8
7FF0
1FE0
3FE0
3FF0
7DF0
38E0
ENDCHAR
STARTCHAR comma
ENCODING 44
SWIDTH 242 0
DWIDTH 12 0
BBX 9 17 2 -8
BITMAP
FF80
FF80
FF80
FF80
FF80
FF80
FF80
FF80
FF80
1F80
1F80
1F80
1F00
3F00
FE00
FC00
7000
ENDCHAR
STARTCHAR period
ENCODING 46
SWIDTH 236 0
DWIDTH 12 0
BBX 10 9 1 0
BITMAP
7F80
FFC0
FFC0
FFC0
FFC0
FFC0
FFC0
FFC0
7FC0
ENDCHAR
STARTCHAR slash
ENCODING 47
SWIDTH 540 0
DWIDTH 27 0
BBX 25 41 1 0
BITMAP
00000380
00000780
00000700
00000F00
00000E00
00001E00
00003C00
00003800
00007800
00007000
0000F000
0000E000
0001E000
0001C000
0003C000
00078000
00070000
000F0000
000E0000
001E0000
001C0000
003C0000
00780000
00700000
00F00000
00E00000
01E00000
01C00000
03C00000
03800000
07000000
0F000000
0E000000
1E000000
1C000000
3C000000
38000000
78000000
70000000
E0000000
40000000
ENDCHAR
STARTCHAR zero
ENCODING 48
SWIDTH 701 0
DWIDTH 35 0
BBX 31 41 2 0
BITMAP
07FFFFC0
1FFFFFF0
3FFFFFF8
7FFFFFFC
7FFFFFFE
FE0000FE
F800007E
F800003E
F800003E
F800003E
F800003E
F800003E
F800003E
F800003E
F800003E
F800003E
F800003E
F800003E
F800003E
F800003E
F800003E
F800003E
F800003E
F81FF03E
F81FF03E
F81FF03E
F81FF03E
F81FF03E
F81FF03E
F81FF03E
F81FF03E
F81FF03E
F800003E
F800003E
F800003E
F800007E
FE0000FC
7FFFFFFC
3FFFFFF8
1FFFFFF0
07FFFFC0
ENDCHAR
STARTCHAR one
ENCODING 49
SWIDTH 427 0
DWIDTH 21 0
BBX 18 42 2 0
BITMAP
7F0000
FF8000
FF8000
FF8000
FF8000
FF8000
7F8000
1F8000
0F8000
0F8000
0F8000
0F8000
0F8000
0F8000
0F8000
0F8000
0F8000
0F8000
0F8000
0F8000
0F8000
0F8000
0FC000
7FFF00
FFFF80
FFFFC0
FFFFC0
FFFFC0
FFFFC0
FFFFC0
FFFFC0
FFFFC0
FFFFC0
FFFFC0
FFFFC0
FFFFC0
FFFFC0
FFFFC0
FFFFC0
FFFFC0
FFFFC0
7FFF80
ENDCHAR
STARTCHAR two
ENCODING 50
SWIDTH 439 0
DWIDTH 22 0
BBX 19 42 2 0
BITMAP
7FFFC0
FFFFC0
FFFFC0
FFFFE0
7FFFE0
0007E0
0007E0
0003E0
0003E0
0003E0
0003E0
0003E0
0003E0
0003E0
0003E0
0003E0
0003E0
0003E0
0007E0
7FFFE0
FFFFE0
FFFFC0
FFFFC0
FFFF80
FC0000
F80000
F80000
F80000
F80000
F80000
F80000
F80000
F80000
F80000
F80000
F80000
F80000
F80000
FFFF80
FFFFC0
FFFFC0
7FFF80
ENDCHAR
STARTCHAR three
ENCODING 51
SWIDTH 527 0
DWIDTH 26 0
BBX 23 42 2 0
BITMAP
7FFF80
FFFFC0
FFFFC0
FFFFC0
7FFFC0
0007C0
0007C0
0007C0
0007C0
0007C0
0007C0
0007C0
0007C0
0007C0
0007C0
0007C0
0007C0
0007C0
0007C0
7FFFC0
FFFFE0
FFFFF8
FFFFFC
7FFFFE
0007FE
0007FE
0007FE
0007FE
0007FE
0007FE
0007FE
0007FE
0007FE
0007FE
0007FE
0007FE
0007FE
000FFE
7FFFFE
FFFFFE
FFFFFE
7FFFFC
ENDCHAR
STARTCHAR four
ENCODING 52
SWIDTH 618 0
DWIDTH 31 0
BBX 27 42 2 0
BITMAP
3F000000
FF800000
FFC00000
FFC00000
FFC00000
FFC00000
FFC00000
FFC00000
FFC00000
FFC00000
FFC00000
FFC00000
FFC00000
FFC00000
FFC00000
FFC00000
FFC00000
FFC00000
FFC00000
FFC00000
FFC00000
FFC00000
FFC00000
FFC00780
FFC01FE0
FFC03FE0
FFC03FE0
FFC07FE0
FFFFFFE0
FFFFFFE0
FFFFFFE0
FFFFFFE0
7FFFFFE0
00007FE0
00003FE0
00003FE0
00003FE0
00003FE0
00003FE0
00003FE0
00003FE0
00001FE0
ENDCHAR
STARTCHAR five
ENCODING 53
SWIDTH 520 0
DWIDTH 26 0
BBX 23 41 1 0
BITMAP
3FFFFC
7FFFFE
7FFFFE
7FFFFE
7FFFFC
7E0000
7C0000
7C0000
7C0000
7C0000
7C0000
7C0000
7C0000
7C0000
7C0000
7C0000
7C0000
7C0000
7FFFFC
7FFFFE
7FFFFE
7FFFFE
3FFFFE
0001FE
0001FE
0001FE
0001FE
0001FE
0001FE
0001FE
0001FE
0001FE
0001FE
0001FE
0001FE
0001FE
0001FE
7FFFFE
FFFFFE
FFFFFE
7FFFFE
ENDCHAR
STARTCHAR six
ENCODING 54
SWIDTH 615 0
DWIDTH 31 0
BBX 28 41 2 0
BITMAP
7FFFC000
FFFFC000
FFFFE000
FFFFE000
FFFFE000
FC07E000
F803E000
F803E000
F803E000
F803E000
F803C000
F8000000
F8000000
F8000000
F8000000
F8000000
F8000000
F8000000
F8000000
F8000000
F8000000
F8000000
FC000000
FFFFFFC0
FFFFFFE0
FFFFFFE0
FFFFFFF0
FC0007F0
F80003F0
F80003F0
F80003F0
F80003F0
F80003F0
F80003F0
F80003F0
F80003F0
FC0007F0
FFFFFFF0
FFFFFFE0
FFFFFFE0
7FFFFFC0
ENDCHAR
STARTCHAR seven
ENCODING 55
SWIDTH 531 0
DWIDTH 27 0
BBX 23 42 2 0
BITMAP
7FFFFC
FFFFFE
FFFFFE
FFFFFE
FFFFFE
FC007E
F8003E
F8003E
F8003E
F8003E
F8003E
F8003E
F8003E
F0003E
20003E
00007E
0001FE
0007FE
001FFC
003FF8
007FE0
007F00
007E00
007C00
007C00
007C00
007C00
007C00
007C00
007C00
007C00
007C00
007C00
007C00
007C00
007C00
007C00
007C00
007C00
007C00
007C00
003800
ENDCHAR
STARTCHAR eight
ENCODING 56
SWIDTH 706 0
DWIDTH 35 0
BBX 32 41 2 0
BITMAP
03FFFFC0
07FFFFE0
0FFFFFE0
0FFFFFE0
0FFFFFE0
0FC003E0
0FC003E0
0FC003E0
0FC003E0
0FC003E0
0FC003E0
0FC003E0
0FC003E0
0FC003E0
0FC003E0
0FC003E0
0FC003E0
0FC003E0
0FFFFFF0
0FFFFFF0
3FFFFFFC
FFFFFFFF
FFFFFFFF
FFC003FF
FFC003FF
FF8003FF
FF8003FF
FF8003FF
FF8003FF
FF8003FF
FF8003FF
FF8003FF
FF8003FF
FF8003FF
FF8003FF
FFC003FF
FFC003FF
FFFFFFFF
FFFFFFFF
FFFFFFFF
7FFFFFFE
ENDCHAR
STARTCHAR nine
ENCODING 57
SWIDTH 616 0
DWIDTH 31 0
BBX 27 41 2 0
BITMAP
7FFFFFC0
FFFFFFE0
FFFFFFE0
FFFFFFE0
FFFFFFE0
FC0003E0
F80003E0
F80003E0
F80003E0
F80003E0
F80003E0
F80003E0
F80003E0
F80003E0
F80003E0
F80003E0
F80003E0
FC0007E0
FFFFFFE0
FFFFFFE0
FFFFFFE0
FFFFFFE0
7FFFFFE0
00007FE0
00003FE0
00003FE0
00003FE0
00003FE0
00003FE0
00003FE0
00003FE0
00003FE0
00003FE0
00003FE0
00003FE0
00003FE0
00003FE0
00003FE0
00003FE0
00003FE0
00001FE0
ENDCHAR
STARTCHAR colon
ENCODING 58
SWIDTH 249 0
DWIDTH 12 0
BBX 9 27 2 0
BITMAP
FF80
FF80
FF80
FF80
FF80
FF80
FF80
FF80
FF80
0000
0000
0000
0000
0000
0000
0000
0000
0000
FF80
FF80
FF80
FF80
FF80
FF80
FF80
FF80
FF80
ENDCHAR
STARTCHAR semicolon
ENCODING 59
SWIDTH 241 0
DWIDTH 12 0
BBX 9 34 2 -8
BITMAP
FF00
FF80
FF80
FF80
FF80
FF80
FF80
FF80
FF80
0000
0000
0000
0000
0000
0000
0000
0000
FF80
FF80
FF80
FF80
FF80
FF80
FF80
FF80
FF80
1F80
1F80
1F80
1F00
3F00
FE00
FC00
7000
ENDCHAR
STARTCHAR question
ENCODING 63
SWIDTH 506 0
DWIDTH 25 0
BBX 22 41 2 0
BITMAP
7FFFFC
FFFFFC
FFFFFC
FFFFFC
FFFFFC
F8007C
F8007C
F8007C
F8007C
F8007C
F8007C
F8007C
F0007C
F0007C
00007C
00007C
0001FC
000FFC
003FF8
007FE0
007F80
007E00
007C00
007800
007800
007800
007800
007800
007800
007000
000000
000000
01FE00
03FE00
03FE00
03FE00
03FE00
03FE00
03FE00
03FE00
01FE00
ENDCHAR
STARTCHAR A
ENCODING 65
SWIDTH 604 0
DWIDTH 30 0
BBX 27 41 2 0
BITMAP
07FFFFC0
07FFFFE0
0FFFFFE0
0F8001E0
0F0001E0
0F0001E0
0F0001E0
0F0001E0
0F0001E0
0F0001E0
0F0001E0
0F0001E0
0F0001E0
0F0001E0
0F0001E0
0F0001E0
0F0001E0
0F8003E0
0FFFFFE0
0FFFFFE0
1FFFFFE0
7FFFFFE0
FFC003E0
FF8001E0
FF0001E0
FF0001E0
FF0001E0
FF0001E0
FF0001E0
FF0001E0
FF0001E0
FF0001E0
FF0001E0
FF0001E0
FF0001E0
FF0001E0
FF0001E0
FF0001E0
FF0001E0
FF0001E0
FE0000C0
ENDCHAR
STARTCHAR B
ENCODING 66
SWIDTH 611 0
DWIDTH 31 0
BBX 27 42 2 0
BITMAP
7FFFFC00
FFFFFE00
FFFFFE00
FFFFFE00
FFC03E00
FF801E00
FF801E00
FF801E00
FF801E00
FF801E00
FF801E00
FF801E00
FF801E00
FF801E00
FF801E00
FF801E00
FF801E00
FF803E00
FFC03F00
FFFFFFC0
FFFFFFE0
FFFFFFE0
FFFFFFE0
FFC003E0
FF8001E0
FF8001E0
FF8001E0
FF8001E0
FF8001E0
FF8001E0
FF8001E0
FF8001E0
FF8001E0
FF8001E0
FF8001E0
FF8001E0
FF8001E0
FF8001E0
FFC003E0
FFFFFFE0
FFFFFFE0
FFFFFFC0
ENDCHAR
STARTCHAR C
ENCODING 67
SWIDTH 532 0
DWIDTH 27 0
BBX 23 41 2 0
BITMAP
7FFFFE
FFFFFE
FFFFFE
FFFFFE
F807FE
F003FE
F001FE
F001FE
F001FE
F001FE
F001FE
F001FE
F001FE
F00000
F00000
F00000
F00000
F00000
F00000
F00000
F00000
F00000
F00000
F00000
F00000
F00000
F00000
F00000
F0000C
F0001E
F0001E
F0001E
F0001E
F0001E
F0001E
F0001E
F0001E
F8003E
FFFFFE
FFFFFE
FFFFFC
ENDCHAR
STARTCHAR D
ENCODING 68
SWIDTH 601 0
DWIDTH 30 0
BBX 27 42 2 0
BITMAP
7FFFF800
FFFFFE00
FFFFFF00
FFFFFF80
FFC00F80
FF8007C0
FF8003C0
FF8003C0
FF8001E0
FF8001E0
FF8001E0
FF8001E0
FF8001E0
FF8001E0
FF8001E0
FF8001E0
FF8001E0
FF8001E0
FF8001E0
FF8001E0
FF8001E0
FF8001E0
FF8001E0
FF8001E0
FF8001E0
FF8001E0
FF8001E0
FF8001E0
FF8001E0
FF8001E0
FF8001E0
FF8001E0
FF8001E0
FF8001E0
FF8003E0
FF8003C0
FF8003C0
FF8007C0
FFC00F80
FFFFFF00
FFFFFE00
7FFFF800
ENDCHAR
STARTCHAR E
ENCODING 69
SWIDTH 500 0
DWIDTH 25 0
BBX 22 42 2 0
BITMAP
7FFFF8
FFFFF8
FFFFFC
FFFFF8
F80000
F00000
F00000
F00000
F00000
F00000
F00000
F00000
F00000
F00000
F00000
F00000
F00000
F00000
F80000
FFFFF8
FFFFFC
FFFFFC
FFFFF8
FFC000
FF8000
FF0000
FF0000
FF0000
FF0000
FF0000
FF0000
FF0000
FF0000
FF0000
FF0000
FF0000
FF0000
FF8000
FFC000
FFFFF8
FFFFFC
7FFFF8
ENDCHAR
STARTCHAR F
ENCODING 70
SWIDTH 499 0
DWIDTH 25 0
BBX 22 42 2 0
BITMAP
FFFFF8
FFFFFC
FFFFFC
FFFFF8
FFC000
FF8000
FF0000
FF0000
FF0000
FF0000
FF0000
FF0000
FF0000
FF0000
FF0000
FF0000
FF0000
FF8000
FFC000
3FFFF8
1FFFF8
0FFFF8
0FFFF8
0FC000
0F8000
0F0000
0F0000
0F0000
0F0000
0F0000
0F0000
0F0000
0F0000
0F0000
0F0000
0F0000
0F0000
0F0000
0F0000
0F0000
0F0000
070000
ENDCHAR
STARTCHAR G
ENCODING 71
SWIDTH 621 0
DWIDTH 31 0
BBX 28 41 2 0
BITMAP
7FFFFFC0
FFFFFFE0
FFFFFFE0
FFFFFFE0
FFC03FE0
FF801FE0
FF801FE0
FF801FE0
FF801FE0
FF801FE0
FF801FE0
FF800000
FF800000
FF800000
FF800000
FF800000
FF800000
FF800000
FF80FFE0
FF80FFE0
FF80FFF0
FF80FFF0
FF8003F0
FF8001F0
FF8001F0
FF8001F0
FF8001F0
FF8001F0
FF8001F0
FF8001F0
FF8001F0
FF8001F0
FF8001F0
FF8001F0
FF8001F0
FF8001F0
FFC003F0
FFFFFFF0
FFFFFFF0
FFFFFFE0
7FFFFFE0
ENDCHAR
STARTCHAR H
ENCODING 72
SWIDTH 620 0
DWIDTH 31 0
BBX 28 41 2 0
BITMAP
E0001C00
F0001E00
F0001E00
F0001E00
F0001E00
F0001E00
F0001E00
F0001E00
F0001E00
F0001E00
F0001E00
F0001E00
F0001E00
F0001E00
F0001E00
F0001E00
F0001E00
F8003F00
FFFFFFC0
FFFFFFE0
FFFFFFE0
FFFFFFF0
FF803FF0
FF001FF0
FF001FF0
FF001FF0
FF001FF0
FF001FF0
FF001FF0
FF001FF0
FF001FF0
FF001FF0
FF001FF0
FF001FF0
FF001FF0
FF001FF0
FF001FF0
FF001FF0
FF001FF0
FF001FE0
FE001FE0
ENDCHAR
STARTCHAR I
ENCODING 73
SWIDTH 239 0
DWIDTH 12 0
BBX 8 41 2 0
BITMAP
07
07
07
07
07
07
07
07
07
07
07
07
07
07
07
07
07
07
07
0F
0F
3F
FF
FF
FF
FF
FF
FF
FF
FF
FF
FF
FF
FF
FF
FF
FF
FF
FF
FF
FF
ENDCHAR
STARTCHAR J
ENCODING 74
SWIDTH 625 0
DWIDTH 31 0
BBX 28 42 2 0
BITMAP
00000400
00000E00
00001E00
00001E00
00001E00
00001E00
00001E00
00001E00
00001E00
00001E00
00001E00
00001E00
00001E00
00001E00
00001E00
00001E00
00001E00
00001F00
00001F80
00001FE0
00001FF0
00001FF0
00001FF0
00001FF0
00001FF0
00001FF0
00001FF0
00001FF0
3C001FF0
FF001FF0
FF001FF0
FF001FF0
FF001FF0
FF001FF0
FF001FF0
FF001FF0
FF001FF0
FF001FF0
FF803FF0
FFFFFFF0
FFFFFFF0
FFFFFFE0
ENDCHAR
STARTCHAR K
ENCODING 75
SWIDTH 627 0
DWIDTH 31 0
BBX 28 42 2 0
BITMAP
40000000
F00001F0
F00003F0
F80007E0
F8000FC0
F8001F80
F8003F00
F8007E00
F800FC00
F801F800
F803F000
F807E000
F80FC000
F81F8000
F83F0000
F8FE0000
F9FC0000
FBF80000
FFF00000
FFFFFFE0
FFFFFFF0
FFFFFFF0
FFFFFFF0
FFC01FF0
FF801FF0
FF801FF0
FF801FF0
FF801FF0
FF801FF0
FF801FF0
FF801FF0
FF801FF0
FF801FF0
FF801FF0
FF801FF0
FF801FF0
FF801FF0
FF801FF0
FF801FF0
FF801FF0
FF801FF0
FF000FE0
ENDCHAR
STARTCHAR L
ENCODING 76
SWIDTH 499 0
DWIDTH 25 0
BBX 22 42 2 0
BITMAP
020000
070000
078000
078000
078000
078000
078000
078000
078000
078000
078000
078000
078000
078000
078000
078000
078000
078000
078000
078000
0F8000
0F8000
3F8000
FF8000
FF8000
FF8000
FF8000
FF8000
FF8000
FF8000
FF8000
FF8000
FF8000
FF8000
FF8000
FF8000
FF8000
FF8000
FF8000
FFFFF8
FFFFFC
7FFFF8
ENDCHAR
STARTCHAR M
ENCODING 77
SWIDTH 718 0
DWIDTH 36 0
BBX 32 41 2 0
BITMAP
FF000FFF
FF001FFF
FF803FFF
FF803FFF
F7C07DFF
E3C079FF
E3C0F9FF
E1E0F1FF
E1E1F1FF
E0F3E1FF
E0F3C1FF
E0FFC1FF
E07F81FF
E07F81FF
E03F01FF
E03E01FF
E01E01FF
E01C01FF
E00001FF
E00001FF
E00001FF
E00001FF
E00001FF
E00001FF
E00001FF
E00001FF
E00001FF
E00001FF
E00001FF
E07F81FF
E07FC1FF
E07FC1FF
E07FC1FF
E07FC1FF
E07FC1FF
E07FC1FF
E07FC1FF
E07FC1FF
E07FC1FF
E07FC1FF
E03F80FE
ENDCHAR
STARTCHAR N
ENCODING 78
SWIDTH 628 0
DWIDTH 31 0
BBX 28 42 2 0
BITMAP
7E000000
FF0000E0
FF8000F0
FFC000F0
F7E000F0
F1F000F0
F1F000F0
F0F800F0
F07C00F0
F03E00F0
F01F00F0
F01F80F0
F00F80F0
F007C0F0
F003E0F0
F001F0F0
F001F8F0
F000F8F0
F0007CF0
F0003FF0
F0001FF0
F0001FF0
F0000FF0
F00007F0
F00003F0
F00001F0
F00001F0
F00000F0
F00000F0
F01F80F0
F07FC0F0
F07FC0F0
F07FC0F0
F07FC0F0
F07FC0F0
F07FC0F0
F07FC0F0
F07FC0F0
F07FC0F0
F07FC0F0
E07FC0F0
E03F8060
ENDCHAR
STARTCHAR O
ENCODING 79
SWIDTH 603 0
DWIDTH 30 0
BBX 26 42 2 0
BITMAP
7FFFFFC0
FFFFFFC0
FFFFFFC0
FFFFFFC0
F80007C0
F00003C0
F00003C0
E00003C0
E00003C0
E00003C0
E00003C0
E00003C0
E00003C0
E00003C0
E00003C0
E00003C0
E00003C0
E00003C0
E0003FC0
E0003FC0
E0007FC0
E0007FC0
E0007FC0
E0007FC0
E0007FC0
E0007FC0
E0007FC0
E0007FC0
E0007FC0
E0007FC0
E0007FC0
E0007FC0
E0007FC0
E0007FC0
E0007FC0
E0007FC0
F0007FC0
F0007FC0
F800FFC0
FFFFFFC0
FFFFFFC0
FFFFFF80
ENDCHAR
STARTCHAR P
ENCODING 80
SWIDTH 575 0
DWIDTH 29 0
BBX 25 42 2 0
BITMAP
7FFFFF00
FFFFFF80
FFFFFF80
FFFFFF80
F8000F80
F0000780
F0000780
F0000780
F0000780
F0000780
F0000780
F0000780
F0000780
F0000780
F0000780
F0000780
F0000780
F0000780
F0000780
F8000F80
FFFFFF80
FFFFFF80
FFFFFF00
FF800000
FF800000
FF000000
FF000000
FF000000
FF000000
FF000000
FF000000
FF000000
FF000000
FF000000
FF000000
FF000000
FF000000
FF000000
FF000000
FF000000
FF000000
FF000000
ENDCHAR
STARTCHAR Q
ENCODING 81
SWIDTH 601 0
DWIDTH 30 0
BBX 27 47 2 -6
BITMAP
7FFFFFC0
FFFFFFE0
FFFFFFE0
F80003E0
F00001E0
F00001E0
F00001E0
F00001E0
F00001E0
F00001E0
F00001E0
F00001E0
FC0001E0
FE0001E0
FE0001E0
FE0001E0
FE0001E0
FE0001E0
FE0001E0
FE0001E0
FE0001E0
FE0001E0
FE0001E0
FE0001E0
FE0001E0
FE0001E0
FE0001E0
FE0001E0
FE0001E0
FE0001E0
FE0381E0
FE07C1E0
FE07C1E0
FE03E1E0
FE03E1E0
FE03E1E0
FE01F3E0
FF01FFE0
FFFFFFE0
FFFFFFE0
7FFFFFC0
00007E00
00003E00
00003E00
00001E00
00001F00
00000E00
ENDCHAR
STARTCHAR R
ENCODING 82
SWIDTH 639 0
DWIDTH 32 0
BBX 29 41 2 0
BITMAP
7FFFFE00
FFFFFF00
FFFFFF00
F8001F00
F0000F00
F0000F00
F0000F00
F0000F00
F0000F00
F0000F00
F0000F00
F0000F00
F0000F00
F0000F00
F0000F00
F0000F00
F0001F00
F8003FC0
FFFFFFF0
FFFFFFF0
FFFFFFF8
FFC01FF8
FF801FF8
FF800FF8
FF800FF8
FF800FF8
FF800FF8
FF800FF8
FF800FF8
FF800FF8
FF800FF8
FF800FF8
FF800FF8
FF800FF8
FF800FF8
FF800FF8
FF800FF8
FF800FF8
FF800FF8
FF800FF8
7F0007F0
ENDCHAR
STARTCHAR S
ENCODING 83
SWIDTH 531 0
DWIDTH 27 0
BBX 23 42 2 0
BITMAP
7FFFFC
FFFFFE
FFFFFE
FFFFFE
F8003E
F0001E
F0001E
F0001E
F0001E
F0001E
F0001E
F0001E
F0000C
F00000
F00000
F00000
F00000
F00000
F80000
FFFFFE
FFFFFE
FFFFFE
00003E
00001E
00001E
00001E
00001E
00001E
00001E
FF001E
FF001E
FF001E
FF001E
FF001E
FF001E
FF001E
FF001E
FF801E
FF803E
FFFFFE
FFFFFE
FFFFFC
ENDCHAR
STARTCHAR T
ENCODING 84
SWIDTH 603 0
DWIDTH 30 0
BBX 28 41 1 0
BITMAP
7FFFFFE0
FFFFFFF0
FFFFFFF0
7FFFFFE0
007FF000
003FE000
003FE000
003FE000
003FE000
003FE000
003FE000
003FE000
003FE000
003FE000
003FE000
003FE000
003FE000
003FE000
003FE000
003FE000
003FE000
003FE000
003FE000
003FE000
003FE000
003FE000
003FE000
003FE000
003FE000
003FE000
003FE000
003FE000
003FE000
003FE000
003FE000
003FE000
003FE000
003FE000
003FE000
003FE000
001FC000
ENDCHAR
STARTCHAR U
ENCODING 85
SWIDTH 534 0
DWIDTH 27 0
BBX 23 42 2 0
BITMAP
400078
E001FE
F001FE
F001FE
F001FE
F001FE
F001FE
F001FE
F001FE
F001FE
F001FE
F001FE
F001FE
F001FE
F001FE
F001FE
F001FE
F001FE
F001FE
F001FE
F001FE
F001FE
F001FE
F001FE
F001FE
F001FE
F001FE
F001FE
F001FE
F001FE
F001FE
F001FE
F001FE
F001FE
F001FE
F001FE
F001FE
F001FE
F803FE
FFFFFE
FFFFFE
7FFFFE
ENDCHAR
STARTCHAR V
ENCODING 86
SWIDTH 532 0
DWIDTH 27 0
BBX 23 42 2 0
BITMAP
4000FC
E001FE
E001FE
F001FE
F001FE
F001FE
F001FE
F001FE
F001FE
F001FE
F001FE
F001FE
F001FE
F001FE
F001FE
F001FE
F001FE
F001FE
F001FE
F001FE
F001FE
F001FE
F001FE
F001FE
F001FE
F001FE
F001FE
F001FE
F801FE
7801FE
3C01FE
3E01FE
1E01FE
0F01FC
0F03F0
0783E0
07C7C0
03CF80
01FF00
01FE00
00FC00
007800
ENDCHAR
STARTCHAR W
ENCODING 87
SWIDTH 719 0
DWIDTH 36 0
BBX 32 41 2 0
BITMAP
7F01FC07
FF83FE0F
FF83FE0F
FF83FE0F
FF83FE0F
FF83FE0F
FF83FE0F
FF83FE0F
FF83FE0F
FF83FE0F
FF83FE0F
FF83FC0F
FF80F00F
FF80000F
FF80000F
FF82000F
FF87800F
FF87C00F
FF8FC00F
FF8FC00F
FF8FE00F
FF9FE00F
FF9FF00F
FF9CF00F
FFBCF80F
FFBC780F
FFB87C0F
FFF83C0F
FFF83E0F
FFF01E0F
FFF01E0F
FFF00F0F
FFF00F0F
FFE00F8F
FFE0078F
FFE007CF
FFC003CF
FFC003EF
FFC001FF
FF8001FF
7F0000FE
ENDCHAR
STARTCHAR X
ENCODING 88
SWIDTH 542 0
DWIDTH 27 0
BBX 24 42 2 0
BITMAP
400000
F0000E
F0000F
F0000F
F0000F
F0000F
F0000F
F0000F
F0000F
F0000F
F0000F
F8001F
FC003E
7E007E
3F01FC
0FC3F0
07FFE0
03FFC0
01FF80
01FF80
01FF80
03FF80
07FFC0
0FFFE0
1FC3F0
3F01FC
7E007E
FC003E
F0001F
F0001F
F0000F
F0000F
F0000F
F0000F
F0000F
F0000F
F0000F
F0000F
F0000F
F0000F
F0000F
60000E
ENDCHAR
STARTCHAR Y
ENCODING 89
SWIDTH 533 0
DWIDTH 27 0
BBX 23 41 2 0
BITMAP
E0000E
F0000E
F0000E
F0000E
F0000E
F0000E
F0000E
F0000E
F0000E
F0000E
F0000E
F0000E
F0000E
F0000E
F0001E
F0001E
F8003E
7C007E
3F00FC
1F83F0
0FEFE0
03FFC0
01FF80
01FF00
01FF00
01FF00
01FF00
01FF00
01FF00
01FF00
01FF00
01FF00
01FF00
01FF00
01FF00
01FF00
01FF00
01FF00
01FF00
01FF00
00FE00
ENDCHAR
STARTCHAR Z
ENCODING 90
SWIDTH 593 0
DWIDTH 30 0
BBX 26 41 2 0
BITMAP
FFFFFF80
FFFFFFC0
FFFFFF80
F8001F00
F0003F00
F0003E00
F0007E00
F0007C00
F000F800
F000F800
E001F000
E001F000
6003E000
0003E000
0007C000
0007C000
000F8000
001F8000
001F0000
003E0000
003E0000
007C0000
007C0000
00F80000
00F80000
01F00000
01F00000
03E00000
03E03FC0
07C07FC0
07807FC0
0F807FC0
1F007FC0
1F007FC0
3E007FC0
3E007FC0
7C007FC0
7C007FC0
FFFFFFC0
FFFFFFC0
FFFFFFC0
ENDCHAR
STARTCHAR a
ENCODING 97
SWIDTH 392 0
DWIDTH 20 0
BBX 18 25 1 0
BITMAP
0FFFC0
1FFFC0
1C01C0
1C01C0
1C01C0
1C01C0
1C01C0
1C01C0
1C01C0
1C01C0
1C01C0
1FFFC0
1FFFC0
FC01C0
FC01C0
FC01C0
FC01C0
FC01C0
FC01C0
FC01C0
FC01C0
FC01C0
FC01C0
FC01C0
F800C0
ENDCHAR
STARTCHAR b
ENCODING 98
SWIDTH 397 0
DWIDTH 20 0
BBX 18 25 1 0
BITMAP
FFFE00
FFFE00
FC0E00
FC0600
FC0600
FC0600
FC0600
FC0600
FC0600
FC0600
FC0F00
FFFFC0
FFFFC0
FC01C0
FC01C0
FC01C0
FC01C0
FC01C0
FC01C0
FC01C0
FC01C0
FC01C0
FE01C0
FFFFC0
FFFFC0
ENDCHAR
STARTCHAR c
ENCODING 99
SWIDTH 346 0
DWIDTH 17 0
BBX 15 25 1 0
BITMAP
7FFE
FFFE
E07E
E03E
E03E
E03E
E03E
E03E
E000
E000
E000
E000
E000
E000
E000
E000
E000
E006
E006
E006
E006
E006
E00E
FFFE
FFFE
ENDCHAR
STARTCHAR d
ENCODING 100
SWIDTH 390 0
DWIDTH 20 0
BBX 18 25 1 0
BITMAP
7FFC00
FFFF00
FE0380
FC0380
FC01C0
FC01C0
FC01C0
FC01C0
FC01C0
FC01C0
FC01C0
FC01C0
FC01C0
FC01C0
FC01C0
FC01C0
FC01C0
FC01C0
FC01C0
FC01C0
FC01C0
FC0380
FE0780
FFFF00
FFFC00
ENDCHAR
STARTCHAR e
ENCODING 101
SWIDTH 324 0
DWIDTH 16 0
BBX 14 25 1 0
BITMAP
FFFC
FFFC
E000
E000
E000
E000
E000
E000
E000
E000
E000
FFFC
FFFC
FC00
FC00
FC00
FC00
FC00
FC00
FC00
FC00
FC00
FC00
FFFC
FFFC
ENDCHAR
STARTCHAR f
ENCODING 102
SWIDTH 324 0
DWIDTH 16 0
BBX 14 25 1 0
BITMAP
FFFC
FFFC
FC00
FC00
FC00
FC00
FC00
FC00
FC00
FC00
FC00
3FFC
1FFC
1C00
1C00
1C00
1C00
1C00
1C00
1C00
1C00
1C00
1C00
1C00
1800
ENDCHAR
STARTCHAR g
ENCODING 103
SWIDTH 403 0
DWIDTH 20 0
BBX 18 25 1 0
BITMAP
7FFF80
FFFFC0
FE0FC0
FC07C0
FC07C0
FC07C0
FC0780
FC0000
FC0000
FC0000
FC0000
FC1FC0
FC3FC0
FC01C0
FC00C0
FC00C0
FC00C0
FC00C0
FC00C0
FC00C0
FC00C0
FC01C0
FC01C0
FFFFC0
7FFFC0
ENDCHAR
STARTCHAR h
ENCODING 104
SWIDTH 403 0
DWIDTH 20 0
BBX 18 25 1 0
BITMAP
C00400
E00600
E00600
E00600
E00600
E00600
E00600
E00600
E00600
E00600
E00E00
E00F00
FFFFC0
FFFFC0
FC0FC0
F807C0
F807C0
F807C0
F807C0
F807C0
F807C0
F807C0
F807C0
F807C0
F807C0
ENDCHAR
STARTCHAR i
ENCODING 105
SWIDTH 156 0
DWIDTH 8 0
BBX 6 25 1 0
BITMAP
08
1C
1C
1C
1C
1C
1C
1C
1C
1C
1C
1C
1C
7C
FC
FC
FC
FC
FC
FC
FC
FC
FC
FC
FC
ENDCHAR
STARTCHAR j
ENCODING 106
SWIDTH 406 0
DWIDTH 20 0
BBX 19 25 1 0
BITMAP
000600
000700
000700
000700
000700
000700
000700
000700
000700
000700
000700
0007C0
0007E0
0007E0
0007E0
0007E0
0007E0
F807E0
FC07E0
FC07E0
FC07E0
FC07E0
FC0FE0
FFFFE0
FFFFC0
ENDCHAR
STARTCHAR k
ENCODING 107
SWIDTH 408 0
DWIDTH 20 0
BBX 19 25 1 0
BITMAP
6000C0
E003E0
E00780
E00F00
E01E00
E03C00
E07800
E1E000
E3C000
E78000
FF0000
FFFFC0
FFFFE0
FC07E0
FC07E0
FC07E0
FC07E0
FC07E0
FC07E0
FC07E0
FC07E0
FC07E0
FC07E0
FC07E0
FC07C0
ENDCHAR
STARTCHAR l
ENCODING 108
SWIDTH 324 0
DWIDTH 16 0
BBX 14 25 1 0
BITMAP
0C00
1C00
1C00
1C00
1C00
1C00
1C00
1C00
1C00
1C00
1C00
1C00
1C00
7C00
FC00
FC00
FC00
FC00
FC00
FC00
FC00
FC00
FC00
FFFC
FFFC
ENDCHAR
STARTCHAR m
ENCODING 109
SWIDTH 467 0
DWIDTH 23 0
BBX 21 25 1 0
BITMAP
F807F8
FC07F8
FC0FF8
CE1DF8
CE1DF8
C739F8
C771F8
C3F1F8
C3E1F8
C1C1F8
C1C1F8
C001F8
C001F8
C001F8
C001F8
C001F8
C001F8
C001F8
C3E1F8
C3F1F8
C3F1F8
C3F1F8
C3F1F8
C3F1F8
C3F0F8
ENDCHAR
STARTCHAR n
ENCODING 110
SWIDTH 408 0
DWIDTH 20 0
BBX 18 25 1 0
BITMAP
FC00C0
FC00C0
EE00C0
E700C0
E380C0
E1C0C0
E0E0C0
E0F0C0
E078C0
E03CC0
E01CC0
E00FC0
E007C0
E003C0
E003C0
E001C0
E000C0
E000C0
E1F0C0
E3F0C0
E3F0C0
E3F0C0
E3F0C0
E3F0C0
C3F0C0
ENDCHAR
STARTCHAR o
ENCODING 111
SWIDTH 391 0
DWIDTH 20 0
BBX 17 25 1 0
BITMAP
FFFF80
FFFF80
E00380
E00180
E00180
E00180
E00180
E00180
E00180
E00180
E00780
E00F80
E00F80
E00F80
E00F80
E00F80
E00F80
E00F80
E00F80
E00F80
E00F80
E00F80
E01F80
FFFF80
FFFF80
ENDCHAR
STARTCHAR p
ENCODING 112
SWIDTH 374 0
DWIDTH 19 0
BBX 17 25 1 0
BITMAP
7FFF00
FFFF80
E00380
E00380
E00380
E00380
E00380
E00380
E00380
E00380
E00380
FFFF80
FFFF00
FC0000
FC0000
FC0000
FC0000
FC0000
FC0000
FC0000
FC0000
FC0000
FC0000
FC0000
FC0000
ENDCHAR
STARTCHAR q
ENCODING 113
SWIDTH 390 0
DWIDTH 20 0
BBX 18 29 1 -4
BITMAP
7FFF80
FFFFC0
E001C0
E001C0
E001C0
E001C0
E001C0
F001C0
F801C0
F801C0
F801C0
F801C0
F801C0
F801C0
F801C0
F801C0
F801C0
F801C0
F861C0
F871C0
F871C0
F839C0
F83DC0
FFFFC0
7FFF80
000E00
000E00
000700
000200
ENDCHAR
STARTCHAR r
ENCODING 114
SWIDTH 415 0
DWIDTH 21 0
BBX 19 25 1 0
BITMAP
7FFF00
FFFF00
E00700
E00700
E00700
E00700
E00700
E00700
E00700
E00700
F00F00
FFFFE0
FFFFE0
FC07E0
FC07E0
FC07E0
FC07E0
FC07E0
FC07E0
FC07E0
FC07E0
FC07E0
FC07E0
FC07E0
7C07E0
ENDCHAR
STARTCHAR s
ENCODING 115
SWIDTH 345 0
DWIDTH 17 0
BBX 15 25 1 0
BITMAP
FFFE
FFFE
E00E
E006
E006
E006
E006
E004
E000
E000
E000
FFFE
FFFE
000E
0006
0006
0006
FC06
FC06
FC06
FC06
FC06
FC0E
FFFE
FFFE
ENDCHAR
STARTCHAR t
ENCODING 116
SWIDTH 391 0
DWIDTH 20 0
BBX 18 25 1 0
BITMAP
FFFFC0
FFFFC0
03F000
03F000
03F000
03F000
03F000
03F000
03F000
03F000
03F000
03F000
03F000
03F000
03F000
03F000
03F000
03F000
03F000
03F000
03F000
03F000
03F000
03F000
03F000
ENDCHAR
STARTCHAR u
ENCODING 117
SWIDTH 347 0
DWIDTH 17 0
BBX 16 25 1 0
BITMAP
403E
E03E
E03F
E03F
E03F
E03F
E03F
E03F
E03F
E03F
E03F
E03F
E03F
E03F
E03F
E03F
E03F
E03F
E03F
E03F
E03F
E03F
E07F
FFFF
7FFE
ENDCHAR
STARTCHAR v
ENCODING 118
SWIDTH 346 0
DWIDTH 17 0
BBX 15 25 1 0
BITMAP
C03E
E03E
E03E
E03E
E03E
E03E
E03E
E03E
E03E
E03E
E03E
E03E
E03E
E03E
E03E
E03E
E03E
703E
303E
383E
1C3C
0C70
0EE0
07C0
0380
ENDCHAR
STARTCHAR w
ENCODING 119
SWIDTH 468 0
DWIDTH 23 0
BBX 21 24 1 0
BITMAP
7C3E18
FC7E18
FC7E18
FC7E18
FC7E18
FC7E18
FC3E18
FC0018
FC0018
FC6018
FCF018
FCF018
FCF818
FDF818
FD9C18
FD8C18
FF8E18
FF0618
FF0718
FF0318
FE0398
FE0198
FE01F8
FC00F8
ENDCHAR
STARTCHAR x
ENCODING 120
SWIDTH 352 0
DWIDTH 18 0
BBX 16 25 1 0
BITMAP
6002
E007
E007
E007
E007
E007
E007
700E
3C3C
1FF8
0FF0
07E0
07E0
0FF0
3E7C
781E
F00F
E007
E007
E007
E007
E007
E007
E007
6006
ENDCHAR
STARTCHAR y
ENCODING 121
SWIDTH 346 0
DWIDTH 17 0
BBX 15 25 1 0
BITMAP
4006
E006
E006
E006
E006
E006
E006
E006
E006
E006
F00E
783C
1E78
0FF0
07E0
07E0
07E0
07E0
07E0
07E0
07E0
07E0
07E0
07E0
07C0
ENDCHAR
STARTCHAR z
ENCODING 122
SWIDTH 385 0
DWIDTH 19 0
BBX 17 24 1 0
BITMAP
FFFF80
FFFF00
E00F00
E00E00
E01E00
E01C00
E03800
807800
007000
00F000
00E000
01C000
03C000
038000
070000
070000
0E0F80
1E0F80
1C0F80
380F80
380F80
700F80
FFFF80
FFFF80
ENDCHAR
STARTCHAR cent
ENCODING 162
SWIDTH 344 0
DWIDTH 17 0
BBX 14 35 2 6
BITMAP
0400
0700
0700
0700
0700
FFFC
FFFC
FFFC
E7FC
E77C
E77C
E77C
E07C
E000
E000
E000
E000
E000
E000
E000
E000
E000
E00C
E71C
E71C
E71C
E71C
FFFC
FFFC
FFFC
0F00
0700
0700
0700
0600
ENDCHAR
STARTCHAR sterling
ENCODING 163
SWIDTH 556 0
DWIDTH 28 0
BBX 26 40 1 0
BITMAP
00300000
00780000
00780000
20780000
F0780000
F8780000
7C780000
3C780000
1E780000
1F780000
0FF80000
07F80000
03F80000
01F80000
00F80000
00F80000
007C0000
007C0000
007E0000
007F0000
00FF8000
03FFC000
07FBC000
0FF9E000
0FF8F000
0FF8F800
0FF87C00
0FF83C00
0FF81C00
0FF80800
0FF80000
0FF80000
0FF80000
0FF80000
0FF80000
0FF80000
0FFC0000
0FFFFF80
0FFFFFC0
07FFFF80
ENDCHAR
STARTCHAR bullet
ENCODING 165
SWIDTH 331 0
DWIDTH 17 0
BBX 14 14 1 10
BITMAP
3FF8
7FFC
FFFC
FFFC
FFFC
FFFC
FFFC
FFFC
FFFC
FFFC
FFFC
FFFC
7FFC
7FFC
ENDCHAR
STARTCHAR nonbreakingspace
ENCODING 202
SWIDTH 500 0
DWIDTH 25 0
BBX 1 1 0 0
BITMAP
00
ENDCHAR
STARTCHAR endash
ENCODING 208
SWIDTH 668 0
DWIDTH 33 0
BBX 32 10 1 12
BITMAP
0000000F
1FFFFFFF
3FFFFFFE
3FFFFFFE
7FFFFFFE
7FFFFFFC
7FFFFFFC
FFFFFFF8
F0000000
40000000
ENDCHAR
STARTCHAR emdash
ENCODING 209
SWIDTH 475 0
DWIDTH 24 0
BBX 21 11 1 12
BITMAP
000010
000078
1FFFF8
3FFFF8
3FFFF8
7FFFF0
7FFFF0
7FFFF0
FFFFE0
F00000
400000
ENDCHAR
STARTCHAR quotedblleft
ENCODING 210
SWIDTH 407 0
DWIDTH 20 0
BBX 18 13 1 28
BITMAP
1F07C0
3E0F80
7C1F00
781E00
F83E00
F83E00
FE3F80
FF3FC0
FF3FC0
FF3FC0
FF3FC0
FF3FC0
7E1FC0
ENDCHAR
STARTCHAR quotedblright
ENCODING 211
SWIDTH 395 0
DWIDTH 20 0
BBX 18 13 1 29
BITMAP
7E1F80
FF3FC0
FF3FC0
FF3FC0
FF3FC0
FF3FC0
7F1FC0
1F07C0
1F07C0
1F07C0
1E0780
7C1F00
781E00
ENDCHAR
STARTCHAR .notdef
ENCODING -1
SWIDTH 750 0
DWIDTH 38 0
BBX 25 31 6 0
BITMAP
FFFFFF80
80000080
80000080
80000080
80000080
80000080
80000080
80000080
80000080
80000080
80000080
80000080
80000080
80000080
80000080
80000080
80000080
80000080
80000080
80000080
80000080
80000080
80000080
80000080
80000080
80000080
80000080
80000080
80000080
80000080
FFFFFF80
ENDCHAR
STARTCHAR .null
ENCODING -1
SWIDTH 0 0
DWIDTH 0 0
BBX 1 1 0 0
BITMAP
00
ENDCHAR
STARTCHAR nonmarkingreturn
ENCODING -1
SWIDTH 323 0
DWIDTH 16 0
BBX 1 1 0 0
BITMAP
00
ENDCHAR
ENDFONT
